<mxfile host="app.diagrams.net" modified="2020-03-18T03:59:18.443Z" agent="Mozilla/5.0 (Macintosh; Intel Mac OS X 10_15_3) AppleWebKit/605.1.15 (KHTML, like Gecko) Version/13.0.5 Safari/605.1.15" etag="sj_VaqLrb_c_8IBjuhlr" version="12.8.6" type="github">
  <diagram id="C5RBs43oDa-KdzZeNtuy" name="Page-1">
    <mxGraphModel dx="1577" dy="2272" grid="1" gridSize="10" guides="1" tooltips="1" connect="1" arrows="1" fold="1" page="1" pageScale="1" pageWidth="827" pageHeight="1169" math="0" shadow="0">
      <root>
        <mxCell id="WIyWlLk6GJQsqaUBKTNV-0" />
        <mxCell id="WIyWlLk6GJQsqaUBKTNV-1" parent="WIyWlLk6GJQsqaUBKTNV-0" />
        <mxCell id="5TYLNOOK1SjoFz2RJJo4-33" value="" style="edgeStyle=orthogonalEdgeStyle;rounded=0;orthogonalLoop=1;jettySize=auto;html=1;" edge="1" parent="WIyWlLk6GJQsqaUBKTNV-1" source="zkfFHV4jXpPFQw0GAbJ--0">
          <mxGeometry relative="1" as="geometry">
            <mxPoint x="140" y="189" as="targetPoint" />
          </mxGeometry>
        </mxCell>
        <mxCell id="zkfFHV4jXpPFQw0GAbJ--0" value="Bridge" style="swimlane;fontStyle=2;align=center;verticalAlign=top;childLayout=stackLayout;horizontal=1;startSize=26;horizontalStack=0;resizeParent=1;resizeLast=0;collapsible=1;marginBottom=0;rounded=0;shadow=0;strokeWidth=1;" parent="WIyWlLk6GJQsqaUBKTNV-1" vertex="1">
          <mxGeometry x="190" y="120" width="230" height="138" as="geometry">
            <mxRectangle x="230" y="140" width="160" height="26" as="alternateBounds" />
          </mxGeometry>
        </mxCell>
        <mxCell id="zkfFHV4jXpPFQw0GAbJ--2" value="materials :Materials" style="text;align=left;verticalAlign=top;spacingLeft=4;spacingRight=4;overflow=hidden;rotatable=0;points=[[0,0.5],[1,0.5]];portConstraint=eastwest;rounded=0;shadow=0;html=0;" parent="zkfFHV4jXpPFQw0GAbJ--0" vertex="1">
          <mxGeometry y="26" width="230" height="26" as="geometry" />
        </mxCell>
        <mxCell id="zkfFHV4jXpPFQw0GAbJ--3" value="Structural elements:StructuralElements" style="text;align=left;verticalAlign=top;spacingLeft=4;spacingRight=4;overflow=hidden;rotatable=0;points=[[0,0.5],[1,0.5]];portConstraint=eastwest;rounded=0;shadow=0;html=0;" parent="zkfFHV4jXpPFQw0GAbJ--0" vertex="1">
          <mxGeometry y="52" width="230" height="26" as="geometry" />
        </mxCell>
        <mxCell id="5TYLNOOK1SjoFz2RJJo4-20" value="" style="edgeStyle=orthogonalEdgeStyle;rounded=0;orthogonalLoop=1;jettySize=auto;html=1;" edge="1" parent="WIyWlLk6GJQsqaUBKTNV-1" source="zkfFHV4jXpPFQw0GAbJ--17" target="5TYLNOOK1SjoFz2RJJo4-17">
          <mxGeometry relative="1" as="geometry" />
        </mxCell>
        <mxCell id="zkfFHV4jXpPFQw0GAbJ--17" value="Structural elements" style="swimlane;fontStyle=0;align=center;verticalAlign=top;childLayout=stackLayout;horizontal=1;startSize=26;horizontalStack=0;resizeParent=1;resizeLast=0;collapsible=1;marginBottom=0;rounded=0;shadow=0;strokeWidth=1;" parent="WIyWlLk6GJQsqaUBKTNV-1" vertex="1">
          <mxGeometry x="508" y="120" width="162" height="130" as="geometry">
            <mxRectangle x="550" y="140" width="160" height="26" as="alternateBounds" />
          </mxGeometry>
        </mxCell>
        <mxCell id="zkfFHV4jXpPFQw0GAbJ--18" value="type: Type" style="text;align=left;verticalAlign=top;spacingLeft=4;spacingRight=4;overflow=hidden;rotatable=0;points=[[0,0.5],[1,0.5]];portConstraint=eastwest;" parent="zkfFHV4jXpPFQw0GAbJ--17" vertex="1">
          <mxGeometry y="26" width="162" height="26" as="geometry" />
        </mxCell>
        <mxCell id="5TYLNOOK1SjoFz2RJJo4-16" value="condition: Condition" style="text;align=left;verticalAlign=top;spacingLeft=4;spacingRight=4;overflow=hidden;rotatable=0;points=[[0,0.5],[1,0.5]];portConstraint=eastwest;" vertex="1" parent="zkfFHV4jXpPFQw0GAbJ--17">
          <mxGeometry y="52" width="162" height="26" as="geometry" />
        </mxCell>
        <mxCell id="5TYLNOOK1SjoFz2RJJo4-17" value="Condition" style="swimlane;fontStyle=0;align=center;verticalAlign=top;childLayout=stackLayout;horizontal=1;startSize=26;horizontalStack=0;resizeParent=1;resizeLast=0;collapsible=1;marginBottom=0;rounded=0;shadow=0;strokeWidth=1;" vertex="1" parent="WIyWlLk6GJQsqaUBKTNV-1">
          <mxGeometry x="508" y="-90" width="162" height="130" as="geometry">
            <mxRectangle x="550" y="140" width="160" height="26" as="alternateBounds" />
          </mxGeometry>
        </mxCell>
        <mxCell id="5TYLNOOK1SjoFz2RJJo4-18" value="type: Type" style="text;align=left;verticalAlign=top;spacingLeft=4;spacingRight=4;overflow=hidden;rotatable=0;points=[[0,0.5],[1,0.5]];portConstraint=eastwest;" vertex="1" parent="5TYLNOOK1SjoFz2RJJo4-17">
          <mxGeometry y="26" width="162" height="26" as="geometry" />
        </mxCell>
        <mxCell id="5TYLNOOK1SjoFz2RJJo4-3" value="&lt;div class=&quot;page&quot; title=&quot;Page 1&quot; style=&quot;white-space: normal&quot;&gt;&lt;div class=&quot;layoutArea&quot;&gt;&lt;div class=&quot;column&quot;&gt;&lt;p&gt;&lt;span style=&quot;font-size: 11pt&quot;&gt;girders&lt;/span&gt;&lt;/p&gt;&lt;/div&gt;&lt;/div&gt;&lt;/div&gt;" style="html=1;" vertex="1" parent="WIyWlLk6GJQsqaUBKTNV-1">
          <mxGeometry x="850" y="110" width="110" height="50" as="geometry" />
        </mxCell>
        <mxCell id="5TYLNOOK1SjoFz2RJJo4-4" value="&lt;div class=&quot;page&quot; title=&quot;Page 1&quot; style=&quot;white-space: normal&quot;&gt;&lt;div class=&quot;layoutArea&quot;&gt;&lt;div class=&quot;column&quot;&gt;&lt;p&gt;&lt;span style=&quot;font-size: 11pt&quot;&gt;abutments&lt;/span&gt;&lt;/p&gt;&lt;/div&gt;&lt;/div&gt;&lt;/div&gt;" style="html=1;" vertex="1" parent="WIyWlLk6GJQsqaUBKTNV-1">
          <mxGeometry x="850" y="180" width="110" height="50" as="geometry" />
        </mxCell>
        <mxCell id="5TYLNOOK1SjoFz2RJJo4-5" value="&lt;div class=&quot;page&quot; title=&quot;Page 1&quot; style=&quot;white-space: normal&quot;&gt;&lt;div class=&quot;layoutArea&quot;&gt;&lt;div class=&quot;column&quot;&gt;&lt;div class=&quot;page&quot; title=&quot;Page 1&quot;&gt;&lt;div class=&quot;layoutArea&quot;&gt;&lt;div class=&quot;column&quot;&gt;&lt;p&gt;&lt;span style=&quot;font-size: 11pt&quot;&gt;decks&lt;/span&gt;&lt;/p&gt;&lt;/div&gt;&lt;/div&gt;&lt;/div&gt;&lt;/div&gt;&lt;/div&gt;&lt;/div&gt;" style="html=1;" vertex="1" parent="WIyWlLk6GJQsqaUBKTNV-1">
          <mxGeometry x="850" y="250" width="110" height="50" as="geometry" />
        </mxCell>
        <mxCell id="5TYLNOOK1SjoFz2RJJo4-6" value="&lt;div class=&quot;page&quot; title=&quot;Page 1&quot; style=&quot;white-space: normal&quot;&gt;&lt;div class=&quot;layoutArea&quot;&gt;&lt;div class=&quot;column&quot;&gt;&lt;p&gt;&lt;span style=&quot;font-size: 11pt&quot;&gt;piers&lt;/span&gt;&lt;/p&gt;&lt;/div&gt;&lt;/div&gt;&lt;/div&gt;" style="html=1;" vertex="1" parent="WIyWlLk6GJQsqaUBKTNV-1">
          <mxGeometry x="850" y="40" width="110" height="50" as="geometry" />
        </mxCell>
        <mxCell id="5TYLNOOK1SjoFz2RJJo4-24" style="edgeStyle=orthogonalEdgeStyle;rounded=0;orthogonalLoop=1;jettySize=auto;html=1;entryX=0.5;entryY=0;entryDx=0;entryDy=0;exitX=0.414;exitY=1;exitDx=0;exitDy=0;exitPerimeter=0;" edge="1" parent="WIyWlLk6GJQsqaUBKTNV-1" source="5TYLNOOK1SjoFz2RJJo4-47" target="5TYLNOOK1SjoFz2RJJo4-17">
          <mxGeometry relative="1" as="geometry">
            <mxPoint x="465" y="-160" as="sourcePoint" />
            <Array as="points">
              <mxPoint x="438" y="-120" />
              <mxPoint x="589" y="-120" />
            </Array>
          </mxGeometry>
        </mxCell>
        <mxCell id="5TYLNOOK1SjoFz2RJJo4-25" style="edgeStyle=orthogonalEdgeStyle;rounded=0;orthogonalLoop=1;jettySize=auto;html=1;entryX=0.5;entryY=0;entryDx=0;entryDy=0;" edge="1" parent="WIyWlLk6GJQsqaUBKTNV-1" source="5TYLNOOK1SjoFz2RJJo4-22" target="5TYLNOOK1SjoFz2RJJo4-17">
          <mxGeometry relative="1" as="geometry">
            <Array as="points">
              <mxPoint x="589" y="-150" />
              <mxPoint x="589" y="-150" />
            </Array>
          </mxGeometry>
        </mxCell>
        <mxCell id="5TYLNOOK1SjoFz2RJJo4-22" value="&lt;div class=&quot;page&quot; title=&quot;Page 1&quot; style=&quot;white-space: normal&quot;&gt;&lt;div class=&quot;layoutArea&quot;&gt;&lt;div class=&quot;column&quot;&gt;&lt;p&gt;&lt;span style=&quot;font-size: 11pt&quot;&gt;normal&lt;/span&gt;&lt;/p&gt;&lt;/div&gt;&lt;/div&gt;&lt;/div&gt;" style="html=1;" vertex="1" parent="WIyWlLk6GJQsqaUBKTNV-1">
          <mxGeometry x="550" y="-210" width="110" height="50" as="geometry" />
        </mxCell>
        <mxCell id="5TYLNOOK1SjoFz2RJJo4-28" style="edgeStyle=orthogonalEdgeStyle;rounded=0;orthogonalLoop=1;jettySize=auto;html=1;" edge="1" parent="WIyWlLk6GJQsqaUBKTNV-1">
          <mxGeometry relative="1" as="geometry">
            <mxPoint x="746" y="-164" as="sourcePoint" />
            <mxPoint x="590" y="-90" as="targetPoint" />
            <Array as="points">
              <mxPoint x="746" y="-124" />
              <mxPoint x="590" y="-124" />
            </Array>
          </mxGeometry>
        </mxCell>
        <mxCell id="5TYLNOOK1SjoFz2RJJo4-23" value="&lt;div class=&quot;page&quot; title=&quot;Page 1&quot; style=&quot;white-space: normal&quot;&gt;&lt;div class=&quot;layoutArea&quot;&gt;&lt;div class=&quot;column&quot;&gt;&lt;p&gt;&lt;span style=&quot;font-size: 11pt&quot;&gt;obsolete&lt;/span&gt;&lt;/p&gt;&lt;/div&gt;&lt;/div&gt;&lt;/div&gt;" style="html=1;" vertex="1" parent="WIyWlLk6GJQsqaUBKTNV-1">
          <mxGeometry x="690" y="-210" width="110" height="50" as="geometry" />
        </mxCell>
        <mxCell id="5TYLNOOK1SjoFz2RJJo4-34" value="Roadway System" style="html=1;" vertex="1" parent="WIyWlLk6GJQsqaUBKTNV-1">
          <mxGeometry x="30" y="164" width="110" height="50" as="geometry" />
        </mxCell>
        <mxCell id="5TYLNOOK1SjoFz2RJJo4-43" value="1" style="endArrow=open;html=1;endSize=12;startArrow=diamondThin;startSize=14;startFill=1;edgeStyle=orthogonalEdgeStyle;align=left;verticalAlign=bottom;entryX=0;entryY=0.5;entryDx=0;entryDy=0;" edge="1" parent="WIyWlLk6GJQsqaUBKTNV-1" target="5TYLNOOK1SjoFz2RJJo4-16">
          <mxGeometry x="-1" y="3" relative="1" as="geometry">
            <mxPoint x="420" y="185" as="sourcePoint" />
            <mxPoint x="460" y="60" as="targetPoint" />
          </mxGeometry>
        </mxCell>
        <mxCell id="5TYLNOOK1SjoFz2RJJo4-44" value="Deficient" style="swimlane;fontStyle=0;childLayout=stackLayout;horizontal=1;startSize=26;fillColor=none;horizontalStack=0;resizeParent=1;resizeParentMax=0;resizeLast=0;collapsible=1;marginBottom=0;" vertex="1" parent="WIyWlLk6GJQsqaUBKTNV-1">
          <mxGeometry x="270" y="-280" width="250" height="104" as="geometry" />
        </mxCell>
        <mxCell id="5TYLNOOK1SjoFz2RJJo4-45" value="vulnerability index: int" style="text;strokeColor=none;fillColor=none;align=left;verticalAlign=top;spacingLeft=4;spacingRight=4;overflow=hidden;rotatable=0;points=[[0,0.5],[1,0.5]];portConstraint=eastwest;" vertex="1" parent="5TYLNOOK1SjoFz2RJJo4-44">
          <mxGeometry y="26" width="250" height="26" as="geometry" />
        </mxCell>
        <mxCell id="5TYLNOOK1SjoFz2RJJo4-46" value="sufficient level: Boolean" style="text;strokeColor=none;fillColor=none;align=left;verticalAlign=top;spacingLeft=4;spacingRight=4;overflow=hidden;rotatable=0;points=[[0,0.5],[1,0.5]];portConstraint=eastwest;" vertex="1" parent="5TYLNOOK1SjoFz2RJJo4-44">
          <mxGeometry y="52" width="250" height="26" as="geometry" />
        </mxCell>
        <mxCell id="5TYLNOOK1SjoFz2RJJo4-47" value="state: State" style="text;strokeColor=none;fillColor=none;align=left;verticalAlign=top;spacingLeft=4;spacingRight=4;overflow=hidden;rotatable=0;points=[[0,0.5],[1,0.5]];portConstraint=eastwest;" vertex="1" parent="5TYLNOOK1SjoFz2RJJo4-44">
          <mxGeometry y="78" width="250" height="26" as="geometry" />
        </mxCell>
        <mxCell id="5TYLNOOK1SjoFz2RJJo4-39" value="Project" style="swimlane;fontStyle=0;childLayout=stackLayout;horizontal=1;startSize=26;fillColor=none;horizontalStack=0;resizeParent=1;resizeParentMax=0;resizeLast=0;collapsible=1;marginBottom=0;" vertex="1" parent="WIyWlLk6GJQsqaUBKTNV-1">
          <mxGeometry x="230" y="-90" width="140" height="52" as="geometry" />
        </mxCell>
        <mxCell id="5TYLNOOK1SjoFz2RJJo4-40" value="duration: Duration" style="text;strokeColor=none;fillColor=none;align=left;verticalAlign=top;spacingLeft=4;spacingRight=4;overflow=hidden;rotatable=0;points=[[0,0.5],[1,0.5]];portConstraint=eastwest;" vertex="1" parent="5TYLNOOK1SjoFz2RJJo4-39">
          <mxGeometry y="26" width="140" height="26" as="geometry" />
        </mxCell>
        <mxCell id="5TYLNOOK1SjoFz2RJJo4-48" value="Object" style="html=1;" vertex="1" parent="WIyWlLk6GJQsqaUBKTNV-1">
          <mxGeometry x="30" y="-87" width="110" height="50" as="geometry" />
        </mxCell>
        <mxCell id="5TYLNOOK1SjoFz2RJJo4-50" value="1" style="endArrow=open;html=1;endSize=12;startArrow=diamondThin;startSize=14;startFill=1;edgeStyle=orthogonalEdgeStyle;align=left;verticalAlign=bottom;exitX=1;exitY=0.269;exitDx=0;exitDy=0;exitPerimeter=0;entryX=0;entryY=0.5;entryDx=0;entryDy=0;" edge="1" parent="WIyWlLk6GJQsqaUBKTNV-1" source="zkfFHV4jXpPFQw0GAbJ--18" target="5TYLNOOK1SjoFz2RJJo4-6">
          <mxGeometry x="-1" y="3" relative="1" as="geometry">
            <mxPoint x="640" y="64.5" as="sourcePoint" />
            <mxPoint x="790" y="65" as="targetPoint" />
            <Array as="points">
              <mxPoint x="720" y="153" />
              <mxPoint x="720" y="70" />
              <mxPoint x="800" y="70" />
              <mxPoint x="800" y="65" />
            </Array>
          </mxGeometry>
        </mxCell>
        <mxCell id="5TYLNOOK1SjoFz2RJJo4-51" value="1" style="endArrow=open;html=1;endSize=12;startArrow=diamondThin;startSize=14;startFill=1;edgeStyle=orthogonalEdgeStyle;align=left;verticalAlign=bottom;entryX=0;entryY=0.5;entryDx=0;entryDy=0;" edge="1" parent="WIyWlLk6GJQsqaUBKTNV-1" target="5TYLNOOK1SjoFz2RJJo4-3">
          <mxGeometry x="-1" y="3" relative="1" as="geometry">
            <mxPoint x="667" y="184.5" as="sourcePoint" />
            <mxPoint x="827" y="184.5" as="targetPoint" />
          </mxGeometry>
        </mxCell>
        <mxCell id="5TYLNOOK1SjoFz2RJJo4-52" value="1" style="endArrow=open;html=1;endSize=12;startArrow=diamondThin;startSize=14;startFill=1;edgeStyle=orthogonalEdgeStyle;align=left;verticalAlign=bottom;entryX=0;entryY=0.5;entryDx=0;entryDy=0;" edge="1" parent="WIyWlLk6GJQsqaUBKTNV-1" target="5TYLNOOK1SjoFz2RJJo4-4">
          <mxGeometry x="-1" y="3" relative="1" as="geometry">
            <mxPoint x="670" y="204.5" as="sourcePoint" />
            <mxPoint x="830" y="204.5" as="targetPoint" />
          </mxGeometry>
        </mxCell>
        <mxCell id="5TYLNOOK1SjoFz2RJJo4-53" value="1" style="endArrow=open;html=1;endSize=12;startArrow=diamondThin;startSize=14;startFill=1;edgeStyle=orthogonalEdgeStyle;align=left;verticalAlign=bottom;entryX=0;entryY=0.5;entryDx=0;entryDy=0;" edge="1" parent="WIyWlLk6GJQsqaUBKTNV-1" target="5TYLNOOK1SjoFz2RJJo4-5">
          <mxGeometry x="-1" y="3" relative="1" as="geometry">
            <mxPoint x="670" y="230" as="sourcePoint" />
            <mxPoint x="830" y="230" as="targetPoint" />
          </mxGeometry>
        </mxCell>
        <mxCell id="5TYLNOOK1SjoFz2RJJo4-54" value="1" style="endArrow=open;html=1;endSize=12;startArrow=diamondThin;startSize=14;startFill=1;edgeStyle=orthogonalEdgeStyle;align=left;verticalAlign=bottom;exitX=-0.014;exitY=0.077;exitDx=0;exitDy=0;exitPerimeter=0;entryX=1;entryY=0.5;entryDx=0;entryDy=0;" edge="1" parent="WIyWlLk6GJQsqaUBKTNV-1" source="5TYLNOOK1SjoFz2RJJo4-40" target="5TYLNOOK1SjoFz2RJJo4-48">
          <mxGeometry x="-1" y="3" relative="1" as="geometry">
            <mxPoint x="370" y="70" as="sourcePoint" />
            <mxPoint x="530" y="70" as="targetPoint" />
            <Array as="points">
              <mxPoint x="185" y="-62" />
              <mxPoint x="185" y="-63" />
            </Array>
          </mxGeometry>
        </mxCell>
        <mxCell id="5TYLNOOK1SjoFz2RJJo4-65" style="edgeStyle=orthogonalEdgeStyle;rounded=0;orthogonalLoop=1;jettySize=auto;html=1;" edge="1" parent="WIyWlLk6GJQsqaUBKTNV-1" source="5TYLNOOK1SjoFz2RJJo4-60" target="5TYLNOOK1SjoFz2RJJo4-44">
          <mxGeometry relative="1" as="geometry" />
        </mxCell>
        <mxCell id="5TYLNOOK1SjoFz2RJJo4-60" value="Object" style="html=1;" vertex="1" parent="WIyWlLk6GJQsqaUBKTNV-1">
          <mxGeometry x="160" y="-410" width="110" height="50" as="geometry" />
        </mxCell>
        <mxCell id="5TYLNOOK1SjoFz2RJJo4-66" style="edgeStyle=orthogonalEdgeStyle;rounded=0;orthogonalLoop=1;jettySize=auto;html=1;" edge="1" parent="WIyWlLk6GJQsqaUBKTNV-1" source="5TYLNOOK1SjoFz2RJJo4-61">
          <mxGeometry relative="1" as="geometry">
            <mxPoint x="394.9999999999998" y="-279.9999999999998" as="targetPoint" />
          </mxGeometry>
        </mxCell>
        <mxCell id="5TYLNOOK1SjoFz2RJJo4-61" value="Object" style="html=1;" vertex="1" parent="WIyWlLk6GJQsqaUBKTNV-1">
          <mxGeometry x="340" y="-410" width="110" height="50" as="geometry" />
        </mxCell>
        <mxCell id="5TYLNOOK1SjoFz2RJJo4-67" style="edgeStyle=orthogonalEdgeStyle;rounded=0;orthogonalLoop=1;jettySize=auto;html=1;entryX=0.5;entryY=0;entryDx=0;entryDy=0;" edge="1" parent="WIyWlLk6GJQsqaUBKTNV-1" source="5TYLNOOK1SjoFz2RJJo4-62" target="5TYLNOOK1SjoFz2RJJo4-44">
          <mxGeometry relative="1" as="geometry" />
        </mxCell>
        <mxCell id="5TYLNOOK1SjoFz2RJJo4-62" value="Object" style="html=1;" vertex="1" parent="WIyWlLk6GJQsqaUBKTNV-1">
          <mxGeometry x="520" y="-410" width="110" height="50" as="geometry" />
        </mxCell>
        <mxCell id="5TYLNOOK1SjoFz2RJJo4-68" value="1" style="endArrow=open;html=1;endSize=12;startArrow=diamondThin;startSize=14;startFill=0;edgeStyle=orthogonalEdgeStyle;align=left;verticalAlign=bottom;exitX=0.462;exitY=1.115;exitDx=0;exitDy=0;exitPerimeter=0;" edge="1" parent="WIyWlLk6GJQsqaUBKTNV-1" source="5TYLNOOK1SjoFz2RJJo4-40">
          <mxGeometry x="-1" y="3" relative="1" as="geometry">
            <mxPoint x="330" y="230" as="sourcePoint" />
            <mxPoint x="295" y="120" as="targetPoint" />
            <Array as="points">
              <mxPoint x="295" y="120" />
            </Array>
          </mxGeometry>
        </mxCell>
        <mxCell id="5TYLNOOK1SjoFz2RJJo4-74" style="edgeStyle=orthogonalEdgeStyle;rounded=0;orthogonalLoop=1;jettySize=auto;html=1;" edge="1" parent="WIyWlLk6GJQsqaUBKTNV-1" source="5TYLNOOK1SjoFz2RJJo4-69">
          <mxGeometry relative="1" as="geometry">
            <mxPoint x="95" y="390" as="targetPoint" />
          </mxGeometry>
        </mxCell>
        <mxCell id="5TYLNOOK1SjoFz2RJJo4-69" value="Steel" style="html=1;" vertex="1" parent="WIyWlLk6GJQsqaUBKTNV-1">
          <mxGeometry x="40" y="450" width="110" height="50" as="geometry" />
        </mxCell>
        <mxCell id="5TYLNOOK1SjoFz2RJJo4-75" style="edgeStyle=orthogonalEdgeStyle;rounded=0;orthogonalLoop=1;jettySize=auto;html=1;" edge="1" parent="WIyWlLk6GJQsqaUBKTNV-1" source="5TYLNOOK1SjoFz2RJJo4-70">
          <mxGeometry relative="1" as="geometry">
            <mxPoint x="235.00000000000023" y="390" as="targetPoint" />
          </mxGeometry>
        </mxCell>
        <mxCell id="5TYLNOOK1SjoFz2RJJo4-70" value="RC" style="html=1;" vertex="1" parent="WIyWlLk6GJQsqaUBKTNV-1">
          <mxGeometry x="180" y="450" width="110" height="50" as="geometry" />
        </mxCell>
        <mxCell id="5TYLNOOK1SjoFz2RJJo4-76" style="edgeStyle=orthogonalEdgeStyle;rounded=0;orthogonalLoop=1;jettySize=auto;html=1;" edge="1" parent="WIyWlLk6GJQsqaUBKTNV-1" source="5TYLNOOK1SjoFz2RJJo4-71">
          <mxGeometry relative="1" as="geometry">
            <mxPoint x="374.9999999999998" y="390" as="targetPoint" />
          </mxGeometry>
        </mxCell>
        <mxCell id="5TYLNOOK1SjoFz2RJJo4-71" value="PSC" style="html=1;" vertex="1" parent="WIyWlLk6GJQsqaUBKTNV-1">
          <mxGeometry x="320" y="450" width="110" height="50" as="geometry" />
        </mxCell>
        <mxCell id="5TYLNOOK1SjoFz2RJJo4-77" style="edgeStyle=orthogonalEdgeStyle;rounded=0;orthogonalLoop=1;jettySize=auto;html=1;" edge="1" parent="WIyWlLk6GJQsqaUBKTNV-1" source="5TYLNOOK1SjoFz2RJJo4-72">
          <mxGeometry relative="1" as="geometry">
            <mxPoint x="514.9999999999998" y="390" as="targetPoint" />
          </mxGeometry>
        </mxCell>
        <mxCell id="5TYLNOOK1SjoFz2RJJo4-72" value="Timber" style="html=1;" vertex="1" parent="WIyWlLk6GJQsqaUBKTNV-1">
          <mxGeometry x="460" y="450" width="110" height="50" as="geometry" />
        </mxCell>
        <mxCell id="5TYLNOOK1SjoFz2RJJo4-55" value="Material" style="swimlane;fontStyle=0;childLayout=stackLayout;horizontal=1;startSize=26;fillColor=none;horizontalStack=0;resizeParent=1;resizeParentMax=0;resizeLast=0;collapsible=1;marginBottom=0;" vertex="1" parent="WIyWlLk6GJQsqaUBKTNV-1">
          <mxGeometry x="70" y="330" width="560" height="52" as="geometry" />
        </mxCell>
        <mxCell id="5TYLNOOK1SjoFz2RJJo4-56" value="type: Type" style="text;strokeColor=none;fillColor=none;align=left;verticalAlign=top;spacingLeft=4;spacingRight=4;overflow=hidden;rotatable=0;points=[[0,0.5],[1,0.5]];portConstraint=eastwest;" vertex="1" parent="5TYLNOOK1SjoFz2RJJo4-55">
          <mxGeometry y="26" width="560" height="26" as="geometry" />
        </mxCell>
        <mxCell id="5TYLNOOK1SjoFz2RJJo4-78" style="edgeStyle=orthogonalEdgeStyle;rounded=0;orthogonalLoop=1;jettySize=auto;html=1;" edge="1" parent="WIyWlLk6GJQsqaUBKTNV-1" source="5TYLNOOK1SjoFz2RJJo4-73">
          <mxGeometry relative="1" as="geometry">
            <mxPoint x="609.9999999999998" y="390" as="targetPoint" />
          </mxGeometry>
        </mxCell>
        <mxCell id="5TYLNOOK1SjoFz2RJJo4-73" value="Other" style="html=1;" vertex="1" parent="WIyWlLk6GJQsqaUBKTNV-1">
          <mxGeometry x="600" y="450" width="110" height="50" as="geometry" />
        </mxCell>
        <mxCell id="5TYLNOOK1SjoFz2RJJo4-79" value="1" style="endArrow=open;html=1;endSize=12;startArrow=diamondThin;startSize=14;startFill=0;edgeStyle=orthogonalEdgeStyle;align=left;verticalAlign=bottom;exitX=0.5;exitY=1;exitDx=0;exitDy=0;" edge="1" parent="WIyWlLk6GJQsqaUBKTNV-1" source="zkfFHV4jXpPFQw0GAbJ--0" target="5TYLNOOK1SjoFz2RJJo4-55">
          <mxGeometry x="-1" y="3" relative="1" as="geometry">
            <mxPoint x="330" y="230" as="sourcePoint" />
            <mxPoint x="490" y="230" as="targetPoint" />
          </mxGeometry>
        </mxCell>
      </root>
    </mxGraphModel>
  </diagram>
</mxfile>
